#!OML:ASF F:\VICON\USERDATA\INSTALL\rory3\rory3.ASF
:FULLY-SPECIFIED
:DEGREES
2136
root -0.0752229 16.1924 -1.46529 6.72103 -1.05523 0.267188
lowerback 22.5831 0.693847 -0.684921
upperback 11.4476 0.643805 -3.87615
thorax -0.0325824 0.418742 -3.91113
lowerneck -2.42566 -4.85121 -15.6753
upperneck 0.937821 -6.544 20.9362
head 1.95227 -3.13069 8.93685
rclavicle -1.11319e-014 -1.59028e-015
rhumerus -26.2614 62.3239 -59.6101
rradius 76.745
rwrist -41.38
rhand 3.62571 8.78411
rfingers 7.12502
rthumb 29.0583 -18.9696
lclavicle -1.11319e-014 -1.59028e-015
lhumerus -62.4882 -34.2953 52.0568
lradius 146.068
lwrist 89.609
lhand 22.8929 40.1819
lfingers 7.12502
lthumb 47.2199 62.7506
rfemur -17.8998 13.0531 14.912
rtibia 22.8572
rfoot -8.7461 -11.0015
rtoes -4.72635
lfemur -11.5175 -6.74993 -14.1207
ltibia 11.1619
lfoot -3.58324 6.61031
ltoes -4.35776
2137
root -0.091457 16.1809 -1.46346 6.61079 -1.55433 0.416122
lowerback 22.7184 0.49226 -1.19368
upperback 11.2901 0.249527 -4.61808
thorax -0.28974 0.220121 -4.34123
lowerneck -2.87818 -4.46705 -15.6749
upperneck 1.57859 -6.06965 21.5031
head 2.14194 -2.8521 9.15158
rclavicle 7.95139e-015 2.38542e-014
rhumerus -26.5573 62.6184 -58.7483
rradius 77.2935
rwrist -41.8327
rhand 4.35849 8.856
rfingers 7.12502
rthumb 29.7579 -18.7748
lclavicle 7.95139e-015 2.38542e-014
lhumerus -62.473 -34.066 52.5153
lradius 146.043
lwrist 90.2043
lhand 22.6344 39.9975
lfingers 7.12502
lthumb 46.9809 62.6721
rfemur -18.1463 13.2503 14.7913
rtibia 23.3761
rfoot -9.0127 -10.6841
rtoes -4.32143
lfemur -11.6731 -6.28306 -14.284
ltibia 11.9434
lfoot -4.05588 6.51213
ltoes -4.34803
2138
root -0.107326 16.1663 -1.46604 6.50178 -2.05441 0.565153
lowerback 22.9243 0.341522 -1.70204
upperback 11.1183 -0.0883452 -5.31728
thorax -0.596203 0.0484285 -4.73963
lowerneck -3.32577 -4.13963 -15.5829
upperneck 2.21928 -5.68235 22.0242
head 2.34049 -2.61383 9.33388
rclavicle 4.45278e-014 7.55382e-014
rhumerus -26.8197 62.7432 -57.8508
rradius 77.6006
rwrist -42.1333
rhand 4.97374 8.66833
rfingers 7.12502
rthumb 30.3449 -18.8559
lclavicle 4.45278e-014 7.55382e-014
lhumerus -62.5416 -33.9344 53.2304
lradius 145.951
lwrist 90.5257
lhand 22.8968 39.7377
lfingers 7.12502
lthumb 47.2235 62.3049
rfemur -18.5106 13.422 14.6713
rtibia 24.0624
rfoot -9.26464 -10.3598
rtoes -4.58746
lfemur -11.8969 -5.75783 -14.4492
ltibia 12.8008
lfoot -4.49352 6.33783
ltoes -4.15435
2139
root -0.123565 16.1499 -1.47025 6.47712 -2.50831 0.753042
lowerback 23.0437 0.194968 -2.22679
upperback 10.9547 -0.425421 -6.01335
thorax -0.853062 -0.122517 -5.1248
lowerneck -3.81106 -3.84086 -15.2933
upperneck 2.83716 -5.33568 22.3769
head 2.53432 -2.39166 9.42178
rclavicle -9.54166e-015 5.08889e-014
rhumerus -26.9178 62.884 -56.8596
rradius 77.6825
rwrist -42.4393
rhand 5.08774 8.55026
rfingers 7.12502
rthumb 30.4537 -18.9539
lclavicle -9.54166e-015 5.08889e-014
lhumerus -62.4473 -33.9378 53.9116
lradius 145.82
lwrist 90.8002
lhand 23.3228 39.2425
lfingers 7.12502
lthumb 47.617 61.632
rfemur -19.0404 13.5081 14.5042
rtibia 24.8829
rfoot -9.45641 -10.0495
rtoes -5.50483
lfemur -12.3243 -5.26485 -14.6327
ltibia 13.825
lfoot -5.03357 6.15962
ltoes -4.16218
2140
root -0.140993 16.1279 -1.47329 6.44053 -2.95575 0.818746
lowerback 23.0967 0.0515045 -2.64362
upperback 10.8096 -0.736683 -6.6887
thorax -1.05839 -0.276953 -5.55621
lowerneck -4.09254 -3.50896 -14.751
upperneck 3.30502 -4.95808 22.6055
head 2.63303 -2.16591 9.42468
rclavicle 0 -3.18055e-014
rhumerus -26.995 62.9077 -55.9945
rradius 77.5274
rwrist -42.4788
rhand 5.25675 8.65921
rfingers 7.12502
rthumb 30.6148 -18.815
lclavicle 0 -3.18055e-014
lhumerus -62.0241 -34.0671 54.1901
lradius 145.636
lwrist 91.1975
lhand 23.4106 38.4665
lfingers 7.12502
lthumb 47.6981 60.8189
rfemur -19.5946 13.6338 14.4844
rtibia 25.8019
rfoot -9.70756 -9.79558
rtoes -6.50848
lfemur -12.8332 -4.60088 -14.6888
ltibia 15.0416
lfoot -5.55091 5.78102
ltoes -4.09399
2141
root -0.157531 16.0997 -1.47907 6.25996 -3.32158 0.718396
lowerback 23.2952 -0.133198 -2.90822
upperback 10.6571 -1.08252 -7.29824
thorax -1.35168 -0.445647 -5.99818
lowerneck -3.90944 -3.10544 -14.0864
upperneck 3.53651 -4.49827 22.7487
head 2.56211 -1.9308 9.38146
rclavicle -3.18055e-015 5.08889e-014
rhumerus -27.0343 62.9969 -55.1078
rradius 77.278
rwrist -42.4288
rhand 5.61279 8.67857
rfingers 7.12502
rthumb 30.9543 -18.7316
lclavicle -3.18055e-015 5.08889e-014
lhumerus -61.4817 -34.2404 54.2456
lradius 145.456
lwrist 91.6547
lhand 23.2501 38.189
lfingers 7.12502
lthumb 47.5499 60.6092
rfemur -20.0533 13.7909 14.6856
rtibia 26.8531
rfoot -10.0479 -9.63414
rtoes -6.96031
lfemur -13.253 -3.90214 -14.5679
ltibia 16.3429
lfoot -6.08398 5.27313
ltoes -4.08307
